<?xml version="1.0" encoding="utf-8"?>
<!-- Generator: Adobe Illustrator 23.0.0, SVG Export Plug-In . SVG Version: 6.00 Build 0)  -->
<svg version="1.1" id="Layer_1" xmlns="http://www.w3.org/2000/svg" xmlns:xlink="http://www.w3.org/1999/xlink" x="0px" y="0px"
	 viewBox="0 0 115.5 24.5" style="enable-background:new 0 0 115.5 24.5;" xml:space="preserve">
<style type="text/css">
	.st0{fill:url(#SVGID_1_);}
	.st1{opacity:0.1;}
	.st2{fill:#640000;}
	.st3{fill:url(#SVGID_2_);}
	.st4{opacity:0.1;fill:#640000;enable-background:new    ;}
	.st5{opacity:0.3;fill:url(#SVGID_3_);enable-background:new    ;}
	.st6{fill:url(#SVGID_4_);}
	.st7{opacity:0.4;fill:url(#SVGID_5_);enable-background:new    ;}
	.st8{opacity:0.3;fill:url(#SVGID_6_);enable-background:new    ;}
	.st9{opacity:0.5;fill:url(#SVGID_7_);enable-background:new    ;}
	.st10{opacity:0.3;fill:url(#SVGID_8_);enable-background:new    ;}
	.st11{opacity:0.3;fill:url(#SVGID_9_);enable-background:new    ;}
	.st12{fill:#231F20;}
	.st13{opacity:0.3;fill:url(#SVGID_10_);enable-background:new    ;}
	.st14{fill:#4D4D4D;}
</style>
<title>vpn_premium</title>
<g>
	<g>
		<g>
			<g>
				<g>
					
						<linearGradient id="SVGID_1_" gradientUnits="userSpaceOnUse" x1="55.4133" y1="-1.5818" x2="60.5727" y2="-1.5818" gradientTransform="matrix(-1 0 0 1 76.7466 10.2)">
						<stop  offset="0" style="stop-color:#FD6400"/>
						<stop  offset="0.5" style="stop-color:#DA0001"/>
						<stop  offset="1" style="stop-color:#AD0000"/>
					</linearGradient>
					<path class="st0" d="M21.3,15.1c0-7.8-2.8-13-2.8-13l-2.4,6.6C16.2,8.7,19.5,15.7,21.3,15.1z"/>
					<g class="st1">
						<path class="st2" d="M21.3,15.1L21.3,15.1L21.3,15.1z"/>
						<path class="st2" d="M18.5,2.1c0,0-0.6,4.4,1.7,8.7c0.2,0.4-0.4,3.5,0.4,4.2c-1.8-0.9-4.5-6.3-4.5-6.3L18.5,2.1z"/>
					</g>
					
						<linearGradient id="SVGID_2_" gradientUnits="userSpaceOnUse" x1="60.3273" y1="-0.3431" x2="67.5476" y2="-8.8594" gradientTransform="matrix(-1 0 0 1 76.7466 10.2)">
						<stop  offset="0" style="stop-color:#FD6400"/>
						<stop  offset="1" style="stop-color:#DA0001"/>
					</linearGradient>
					<path class="st3" d="M10.2,0c0,0,8.9,3.9,11,13.4c-2.2,1-8.6-2.2-9.9-4.3C11.2,4.3,10.2,0,10.2,0z"/>
					<path class="st4" d="M16.6,12.8c-2.3-0.9-4.5-2.4-5.2-3.6C11.3,4.3,10.2,0,10.2,0S15.8,6.2,16.6,12.8z"/>
					
						<linearGradient id="SVGID_3_" gradientUnits="userSpaceOnUse" x1="42.7753" y1="-34.8002" x2="46.404" y2="-34.8002" gradientTransform="matrix(-0.9871 -0.1602 -0.1602 0.9871 50.9954 44.4198)">
						<stop  offset="0" style="stop-color:#FFFF00;stop-opacity:0"/>
						<stop  offset="1" style="stop-color:#FFFF00"/>
					</linearGradient>
					<path class="st5" d="M13.8,4.9l-2.8-4C11,0.9,15.4,3.9,13.8,4.9z"/>
					
						<radialGradient id="SVGID_4_" cx="51.5743" cy="14.1149" r="17.5673" gradientTransform="matrix(-0.9843 0 0 0.9787 63.3021 2.5808)" gradientUnits="userSpaceOnUse">
						<stop  offset="0" style="stop-color:#FDAD01"/>
						<stop  offset="0.5" style="stop-color:#FD7D00"/>
						<stop  offset="1" style="stop-color:#E40100"/>
					</radialGradient>
					<path class="st6" d="M1.8,11.4c0,0-1-4.9-1.8-11.4c0,0,13.8,3.7,18.6,8.4c3.7,3.7,3.7,9.6,0,13.3c-1.8,1.8-4.2,2.8-6.7,2.8
						c-10,0-11.3-9.8-11.8-14.6C1,10.8,1.8,11.4,1.8,11.4z"/>
					
						<linearGradient id="SVGID_5_" gradientUnits="userSpaceOnUse" x1="57.6175" y1="5.2613" x2="78.6381" y2="-8.0398" gradientTransform="matrix(-1 0 0 1 76.7466 10.2)">
						<stop  offset="0" style="stop-color:#FFFF00;stop-opacity:0"/>
						<stop  offset="1" style="stop-color:#FFFF00"/>
					</linearGradient>
					<path class="st7" d="M17.4,10.5C12.6,5.8,0,0,0,0s13.8,3.7,18.6,8.4c3.7,3.7,3.7,9.6,0,13.3c-0.1,0.1-0.2,0.2-0.3,0.3
						C20.6,17.7,20.3,13.4,17.4,10.5z"/>
					
						<linearGradient id="SVGID_6_" gradientUnits="userSpaceOnUse" x1="67.6404" y1="-4.8" x2="72.5476" y2="-4.8" gradientTransform="matrix(-1 0 0 1 76.7466 10.2)">
						<stop  offset="0" style="stop-color:#FFFF00;stop-opacity:0"/>
						<stop  offset="1" style="stop-color:#FFFF00"/>
					</linearGradient>
					<path class="st8" d="M8.8,7.7L4.2,3.1C4.2,3.1,10.7,6.1,8.8,7.7z"/>
					
						<linearGradient id="SVGID_7_" gradientUnits="userSpaceOnUse" x1="283.8631" y1="154.5606" x2="288.6959" y2="154.5606" gradientTransform="matrix(0.3177 -0.9482 0.9482 0.3177 -236.096 235.3175)">
						<stop  offset="0" style="stop-color:#FF0000;stop-opacity:0"/>
						<stop  offset="1" style="stop-color:#FF0000"/>
					</linearGradient>
					<path class="st9" d="M2.9,15.7L0,10C0,10,0.8,16.9,2.9,15.7z"/>
				</g>
				<g>
					
						<linearGradient id="SVGID_8_" gradientUnits="userSpaceOnUse" x1="8.3" y1="0.4778" x2="8.3" y2="5.2778" gradientTransform="matrix(1 0 0 1 0 10.2)">
						<stop  offset="0" style="stop-color:#C22527"/>
						<stop  offset="1" style="stop-color:#FFC800"/>
					</linearGradient>
					<ellipse class="st10" cx="8.3" cy="13.1" rx="1.9" ry="2.4"/>
					
						<linearGradient id="SVGID_9_" gradientUnits="userSpaceOnUse" x1="15.2" y1="0.4778" x2="15.2" y2="5.2778" gradientTransform="matrix(1 0 0 1 0 10.2)">
						<stop  offset="0" style="stop-color:#C22527"/>
						<stop  offset="1" style="stop-color:#FFC800"/>
					</linearGradient>
					<ellipse class="st11" cx="15.2" cy="13.1" rx="1.9" ry="2.4"/>
					<g>
						<ellipse class="st12" cx="15.2" cy="13.1" rx="1.3" ry="1.9"/>
					</g>
					<g>
						<ellipse class="st12" cx="8.3" cy="13.1" rx="1.3" ry="1.9"/>
					</g>
					<path class="st12" d="M11.7,20.8c-3.3,0-5.9-2.6-5.9-5.9h-1c0,3.8,3.1,6.9,7,6.9s6.9-3.1,6.9-6.9h-1.1
						C17.6,18.2,15,20.8,11.7,20.8z"/>
					
						<linearGradient id="SVGID_10_" gradientUnits="userSpaceOnUse" x1="11.75" y1="4.2112" x2="11.75" y2="12.2112" gradientTransform="matrix(1 0 0 1 0 10.2)">
						<stop  offset="0" style="stop-color:#C22527"/>
						<stop  offset="1" style="stop-color:#FFC800"/>
					</linearGradient>
					<path class="st13" d="M18.7,14.9c0,3.8-3.1,6.9-6.9,6.9s-7-3.1-7-6.9h1.1c0,3.3,2.6,5.9,5.9,5.9s5.9-2.6,5.9-5.9H18.7
						 M19.2,14.4h-0.5h-1.1h-0.5v0.5c0,3-2.3,5.3-5.3,5.3s-5.3-2.3-5.3-5.3v-0.5H5.9H4.8H4.3v0.5c0,4.1,3.4,7.5,7.5,7.5
						s7.4-3.3,7.4-7.5V14.4L19.2,14.4z"/>
				</g>
			</g>
		</g>
		<g>
			<path class="st14" d="M70.1,5.5c-0.6-0.6-1.5-0.7-2.2-0.4c-0.7,0.4-1.2,1.1-1.3,1.9c-0.3,1.8-0.5,6.4-0.6,7c0,0.3,0,0.5,0.1,0.8
				c0,0.6,0.2,1.3,0.8,1.5c0.4,0.2,0.9,0.2,1.3-0.1c0.4-0.3,0.6-0.7,0.7-1.2c0.3-1.1,1.3-5.6,1.5-6.7c0.1-0.5,0.2-1.1,0.1-1.6
				C70.6,6.3,70.4,5.8,70.1,5.5z"/>
			<path class="st14" d="M65.8,17.7c-0.7,0.4-1.1,1.3-1,2.1c0.2,0.8,0.9,1.4,1.8,1.5c0.2,0,0.5,0,0.7-0.1c0.5,0,0.9-0.3,1.2-0.6
				c0.5-0.7,0.5-1.7-0.1-2.4C67.7,17.4,66.7,17.2,65.8,17.7z"/>
			<path class="st14" d="M61.1,10.4c-1-0.3-2-0.4-3-0.3c-1,0-1.9,0.5-2.5,1.2C55,12,55.7,14,57.5,13c0.4-0.3,0.8-0.5,1.3-0.6
				c1.1-0.1,2,0.5,2.1,1C61,13.6,61,13.8,61,14v0.1l-0.8,0.1c-1,0.1-1.4,0.1-2.5,0.1c-1-0.2-2,0.1-2.8,0.6s-1.2,1.4-1.2,2.3
				c0,1,0.4,1.9,1.1,2.5c0.6,0.5,1.4,0.9,2.3,0.8c1.1,0.1,2.2-0.1,3.2-0.6c0.2,0.4,0.4,0.7,0.6,1c0.1,0.1,0.2,0.2,0.3,0.3
				c0.6,0.5,1.5,0.3,2-0.3c0.2-0.4,0.3-0.9,0.2-1.4c0-0.5,0.1-1.1,0.1-1.6c0.2-1.1,0.5-2.2,0.6-3.3c0.1-1-0.1-2-0.6-2.8
				C62.9,11.1,62,10.6,61.1,10.4z M59.7,18c-0.6,0.5-1.2,0.6-1.9,0.5c-0.6,0-1-0.5-1-1.1c0.1-0.7,0.9-1,1.3-1c0.4,0,1.6,0,2.4-0.1
				C60.4,16.9,60.1,17.5,59.7,18z"/>
			<path class="st14" d="M52.1,9.4c0-0.5,0-1.1-0.1-1.5c-0.2-0.8-0.9-1.3-1.7-1.3s-1.4,0.7-1.4,1.5c0,0.5,0,1,0.1,1.5l0.7,9.7
				c0.1,0.7,0.4,1.8,1.8,1.7c0.9-0.1,1.5-1,1.4-1.9C52.9,18.7,52.1,9.4,52.1,9.4z"/>
			<path class="st14" d="M47.1,12.3c-0.6-0.7-1.3-1.3-2.1-1.6c-1.6-0.7-3.5-0.5-5,0.4c-1.4,1.1-2.2,2.7-2.2,4.4
				c-0.1,1,0.1,2,0.6,2.9c0.4,0.8,1.1,1.4,1.9,1.8c1.6,0.8,3.4,0.9,5,0.1c1.5-0.9,2.4-2.3,2.6-4c-0.1,0.2,0-0.6,0.1-1.2
				C48,14.1,47.7,13.1,47.1,12.3z M44.9,15.9L44.9,15.9c-0.1,0.8-0.4,1.5-1,2.2c-0.8,0.7-2,0.5-2.7-0.3c-0.4-0.9-0.5-1.9-0.3-2.8
				c0.2-0.9,0.7-1.6,1.5-2c0.8-0.3,1.7,0,2.2,0.7C44.9,14.3,45,15.1,44.9,15.9z"/>
			<path class="st14" d="M44.9,15.9c0-0.1,0-0.1,0-0.2C44.9,15.7,44.8,15.8,44.9,15.9z"/>
			<path class="st14" d="M36.2,13.3c-0.1-0.9-0.5-1.8-1.2-2.4c-1.4-1-3.2-1-4.5,0c-0.3,0.1-0.5,0.4-0.7,0.6
				c-0.1-1.1-0.3-2.3-0.5-3.4c-0.1-0.5-0.5-0.8-0.9-1s-0.8-0.2-1.2,0c-0.4,0.2-0.7,0.5-0.8,0.8c-0.2,0.5-0.2,1-0.1,1.5
				c0.2,1.1,0.9,9.1,1.1,10.2c0.1,0.4,0.3,0.8,0.6,1.2c0.3,0.3,0.6,0.4,1,0.4c0.8,0,1.5-0.6,1.6-1.4c0-0.4,0-0.8-0.1-1.2
				c0-0.5-0.2-2.5-0.3-3.1c0-0.5,0-0.9,0.1-1.4c0.2-0.7,0.8-1.2,1.6-1.3c1.1-0.1,1.3,1.1,1.4,2c0.1,1.1,0.2,2.2,0.3,3.4
				c0,0.8,0.1,1.9,1,2.3c0.8,0.3,1.6,0,2-0.7c0.2-0.5,0.3-1,0.2-1.5C36.7,17.8,36.4,14.4,36.2,13.3z"/>
			<path class="st14" d="M81.6,8.7h-0.5c-0.4-0.1-0.8,0.1-1,0.5l-2.5,7.6l-0.2,0.6h-0.1l-0.2-0.6l-2.3-7.6c-0.2-0.4-0.6-0.6-1-0.5
				h-0.6c-0.8,0-1.1,0.2-1.1,0.4c0,0.1,0.1,0.2,0.1,0.3l3.7,11.3c0.1,0.3,0.5,0.4,1,0.4h0.9c0.5,0,0.9-0.1,1-0.4l3.8-11.3
				c0-0.1,0-0.2,0-0.3C82.6,8.9,82.3,8.7,81.6,8.7z"/>
			<path class="st14" d="M88.4,8.8h-3.9c-0.3,0.1-0.6,0.4-0.5,0.7v11c0,0.4,0.3,0.6,1,0.6h0.7c0.7,0,1-0.2,1-0.6v-4h1.8
				c0.1,0,0.2,0,0.3,0c2.1-0.1,3.7-1.8,3.7-3.9C92.5,9.2,89.9,8.8,88.4,8.8z M89.7,12.6c0,0.1,0,0.2,0,0.3c-0.1,0.7-0.7,1.3-1.5,1.2
				h-1.5v-3h1.5c0.1,0,0.2,0,0.3,0C89.2,11.2,89.8,11.9,89.7,12.6z"/>
			<path class="st14" d="M103.1,8.7h-0.5c-0.7,0-1,0.2-1,0.6v7l-0.5-0.7L97,9.2c-0.3-0.4-0.8-0.6-1.2-0.5H95c-0.7,0-1,0.2-1,0.6
				v11.2c0,0.4,0.3,0.6,1,0.6h0.5c0.7,0,1-0.2,1-0.6v-7.1l4.7,7.2c0.3,0.4,0.8,0.6,1.2,0.5h0.6c0.7,0,1-0.2,1-0.6V9.3
				C104,8.9,103.7,8.7,103.1,8.7z"/>
			<path class="st14" d="M114.9,13.9h-2.8v-2.8c0-0.4-0.3-0.5-0.9-0.5H111c-0.6,0-0.9,0.2-0.9,0.5v2.8h-2.7c-0.4,0-0.5,0.3-0.5,0.9
				V15c0,0.6,0.2,0.9,0.5,0.9h2.7v2.7c0,0.4,0.3,0.5,0.9,0.5h0.3c0.6,0,0.9-0.2,0.9-0.5v-2.7h2.8c0.4,0,0.5-0.3,0.5-0.9v-0.1
				C115.5,14.2,115.3,13.9,114.9,13.9z"/>
		</g>
	</g>
</g>
</svg>
