<svg xmlns="http://www.w3.org/2000/svg" width="32" height="16" viewBox="0 0 32 16">
    <defs>
        <style>
            .cls-1{fill:#0288d1}.cls-2{fill:#fff}
        </style>
    </defs>
    <g id="ic_free" transform="translate(-807 -724)">
        <rect id="Rectangle_1101" width="32" height="16" class="cls-1" data-name="Rectangle 1101" rx="8" transform="translate(807 724)"/>
        <path id="Path_37144" d="M-5.416-5.828v1.04h-2.392v1.476h1.992v1.044h-1.992V0h-1.36v-5.828zM-3.2-2.156V0h-1.352v-5.828h1.9a3.891 3.891 0 0 1 1.078.13 2.024 2.024 0 0 1 .728.362 1.37 1.37 0 0 1 .41.548 1.815 1.815 0 0 1 .124.688 1.847 1.847 0 0 1-.076.536 1.623 1.623 0 0 1-.226.464 1.749 1.749 0 0 1-.368.382 1.954 1.954 0 0 1-.5.276 1.271 1.271 0 0 1 .254.168 1 1 0 0 1 .206.244L.216 0h-1.224A.519.519 0 0 1-1.5-.256l-.968-1.692a.407.407 0 0 0-.15-.16.5.5 0 0 0-.242-.048zm0-.932h.544a1.391 1.391 0 0 0 .47-.07.849.849 0 0 0 .318-.194.739.739 0 0 0 .18-.29A1.113 1.113 0 0 0-1.632-4a.751.751 0 0 0-.25-.6 1.164 1.164 0 0 0-.774-.216H-3.2zm7.88-2.74v1.04H2.288v1.36H4.12v1H2.288v1.388H4.68V0H.928v-5.828zm4.68 0v1.04H6.968v1.36H8.8v1H6.968v1.388H9.36V0H5.608v-5.828z" class="cls-2" data-name="Path 37144" transform="translate(823 735)"/>
    </g>
</svg>
