<?xml version="1.0" encoding="utf-8"?>
<!-- Generator: Adobe Illustrator 23.0.0, SVG Export Plug-In . SVG Version: 6.00 Build 0)  -->
<svg version="1.1" id="Layer_1" xmlns="http://www.w3.org/2000/svg" xmlns:xlink="http://www.w3.org/1999/xlink" x="0px" y="0px"
	 viewBox="0 0 38 38" style="enable-background:new 0 0 38 38;" xml:space="preserve">
<style type="text/css">
	.st0{fill:none;}
	.st1{fill:#AAAAAA;}
	.st2{fill:#B9B9B9;}
	.st3{fill:#7E7E81;}
	.st4{fill:#D2D2D2;}
	.st5{fill:#FFFFFF;}
</style>
<title>vpn_premium_disabled</title>
<g>
	<rect class="st0" width="38" height="38"/>
	<g>
		<g>
			<g>
				<path class="st1" d="M33,23.2C33,11.7,29,4,29,4l-3.4,9.7C25.5,13.8,30.4,24,33,23.2z"/>
				<path class="st1" d="M16.8,1c0,0,13,5.7,16,19.7c-3.3,1.4-12.5-3.2-14.3-6.3C18.3,7.2,16.8,1,16.8,1z"/>
				<path class="st2" d="M4.6,17.7c0,0-1.4-7.1-2.6-16.7c0,0,20.1,5.5,27,12.4c5.4,5.4,5.4,14.2,0,19.6c-2.6,2.7-6.1,4-9.7,4
					C4.6,37,2.8,22.6,2,15.6C3.4,16.9,4.6,17.7,4.6,17.7z"/>
			</g>
			<g>
				<g>
					<ellipse class="st3" cx="14" cy="20.2" rx="2" ry="2.8"/>
				</g>
				<g>
					<ellipse class="st3" cx="24" cy="20.2" rx="2" ry="2.8"/>
				</g>
				<path class="st3" d="M19,31.5c-4.7,0-8.5-3.7-8.5-8.5H9c0,5.5,4.5,10,10,10s10-4.5,10-10h-1.5C27.5,27.7,23.7,31.5,19,31.5z"/>
			</g>
		</g>
		<g>
			<circle class="st4" cx="30" cy="8" r="7"/>
			<polygon class="st5" points="34,7 31,7 31,4 29,4 29,7 26,7 26,9 29,9 29,12 31,12 31,9 34,9 			"/>
		</g>
	</g>
</g>
</svg>
