<?xml version="1.0" encoding="utf-8"?>
<!-- Generator: Adobe Illustrator 23.0.0, SVG Export Plug-In . SVG Version: 6.00 Build 0)  -->
<svg version="1.1" id="Layer_1" xmlns="http://www.w3.org/2000/svg" xmlns:xlink="http://www.w3.org/1999/xlink" x="0px" y="0px"
	 viewBox="0 0 38 38" style="enable-background:new 0 0 38 38;" xml:space="preserve">
<style type="text/css">
	.st0{fill:none;}
	.st1{fill:url(#SVGID_1_);}
	.st2{opacity:0.1;}
	.st3{fill:#640000;}
	.st4{fill:url(#SVGID_2_);}
	.st5{opacity:0.1;fill:#640000;}
	.st6{opacity:0.3;fill:url(#SVGID_3_);}
	.st7{fill:url(#SVGID_4_);}
	.st8{opacity:0.4;fill:url(#SVGID_5_);}
	.st9{opacity:0.3;fill:url(#SVGID_6_);}
	.st10{fill:#231F20;}
	.st11{fill:#FFD300;}
	.st12{fill:#FFFFFF;}
</style>
<title>vpn_premium_active</title>
<g>
	<rect class="st0" width="38" height="38"/>
	<g>
		<g>
			<g>
				
					<linearGradient id="SVGID_1_" gradientUnits="userSpaceOnUse" x1="-330.179" y1="13.6321" x2="-322.6817" y2="13.6321" gradientTransform="matrix(-1 0 0 1 -297.179 0)">
					<stop  offset="0" style="stop-color:#FD6400"/>
					<stop  offset="0.5" style="stop-color:#DA0001"/>
					<stop  offset="1" style="stop-color:#AD0000"/>
				</linearGradient>
				<path class="st1" d="M33,23.2C33,11.7,29,4,29,4l-3.4,9.7C25.5,13.8,30.4,24,33,23.2z"/>
				<g class="st2">
					<path class="st3" d="M33,23.2c0,0-0.1,0-0.1,0C32.9,23.2,33,23.2,33,23.2z"/>
					<path class="st3" d="M29,4c0,0-0.9,6.5,2.5,12.8c0.3,0.6-0.6,5.2,0.6,6.2c-2.7-1.3-6.5-9.3-6.5-9.3L29,4z"/>
				</g>
				
					<linearGradient id="SVGID_2_" gradientUnits="userSpaceOnUse" x1="-323.0232" y1="15.4475" x2="-303.8804" y2="-7.1312" gradientTransform="matrix(-1 0 0 1 -297.179 0)">
					<stop  offset="0" style="stop-color:#FD6400"/>
					<stop  offset="0.5" style="stop-color:#DA0001"/>
					<stop  offset="1" style="stop-color:#AD0000"/>
				</linearGradient>
				<path class="st4" d="M16.8,1c0,0,13,5.7,16,19.7c-3.3,1.4-12.5-3.2-14.3-6.3C18.3,7.2,16.8,1,16.8,1z"/>
				<path class="st5" d="M26.1,19.7c-3.3-1.4-6.6-3.6-7.6-5.3C18.3,7.2,16.8,1,16.8,1S25,10.1,26.1,19.7z"/>
				
					<linearGradient id="SVGID_3_" gradientUnits="userSpaceOnUse" x1="-345.65" y1="-54.1287" x2="-340.3691" y2="-54.1287" gradientTransform="matrix(-0.9871 -0.1602 -0.1602 0.9871 -327.0068 3.741)">
					<stop  offset="0" style="stop-color:#FFFF00;stop-opacity:0"/>
					<stop  offset="1" style="stop-color:#FFFF00"/>
				</linearGradient>
				<path class="st6" d="M22.1,8.1l-4-5.7C18,2.4,24.4,6.7,22.1,8.1z"/>
				
					<radialGradient id="SVGID_4_" cx="-357.6472" cy="39.4632" r="26.0765" gradientTransform="matrix(-0.9636 0 0 0.9675 -324.4012 -13.1391)" gradientUnits="userSpaceOnUse">
					<stop  offset="0" style="stop-color:#FDAD01"/>
					<stop  offset="0.5" style="stop-color:#FD7D00"/>
					<stop  offset="1" style="stop-color:#E40100"/>
				</radialGradient>
				<path class="st7" d="M4.6,17.7c0,0-1.4-7.1-2.6-16.7c0,0,20.1,5.5,27,12.4c5.4,5.4,5.4,14.2,0,19.6c-2.6,2.7-6.1,4-9.7,4
					C4.6,37,2.8,22.6,2,15.6C3.4,16.9,4.6,17.7,4.6,17.7z"/>
				
					<linearGradient id="SVGID_5_" gradientUnits="userSpaceOnUse" x1="-326.9421" y1="23.7593" x2="-296.2794" y2="4.3569" gradientTransform="matrix(-1 0 0 1 -297.179 0)">
					<stop  offset="0" style="stop-color:#FFFF00;stop-opacity:0"/>
					<stop  offset="1" style="stop-color:#FFFF00"/>
				</linearGradient>
				<path class="st8" d="M27.2,16.4C20.3,9.5,2,1,2,1s20.1,5.5,27,12.4c5.4,5.4,5.4,14.2,0,19.6c-0.1,0.1-0.3,0.3-0.4,0.4
					C32,27,31.5,20.7,27.2,16.4z"/>
				
					<linearGradient id="SVGID_6_" gradientUnits="userSpaceOnUse" x1="-312.4115" y1="8.9642" x2="-305.2807" y2="8.9642" gradientTransform="matrix(-1 0 0 1 -297.179 0)">
					<stop  offset="0" style="stop-color:#FFFF00;stop-opacity:0"/>
					<stop  offset="1" style="stop-color:#FFFF00"/>
				</linearGradient>
				<path class="st9" d="M14.7,12.4L8.1,5.6C8.1,5.6,17.5,10,14.7,12.4z"/>
			</g>
			<g>
				<g>
					<ellipse class="st10" cx="14" cy="20.2" rx="2" ry="2.8"/>
				</g>
				<g>
					<ellipse class="st10" cx="24" cy="20.2" rx="2" ry="2.8"/>
				</g>
				<path class="st10" d="M19,31.5c-4.7,0-8.5-3.7-8.5-8.5H9c0,5.5,4.5,10,10,10s10-4.5,10-10h-1.5C27.5,27.7,23.7,31.5,19,31.5z"/>
			</g>
		</g>
		<g>
			<circle class="st11" cx="30" cy="8" r="7"/>
			<polygon class="st12" points="34,7 31,7 31,4 29,4 29,7 26,7 26,9 29,9 29,12 31,12 31,9 34,9 			"/>
		</g>
	</g>
</g>
</svg>
